<svg width="2311" height="2161" viewBox="0 0 2311 2161" fill="none" xmlns="http://www.w3.org/2000/svg">
<path d="M399.017 407.218C495.65 407.218 573.987 328.881 573.987 232.248C573.987 135.614 495.65 57.2778 399.017 57.2778C302.383 57.2778 224.047 135.614 224.047 232.248C224.047 328.881 302.383 407.218 399.017 407.218Z" fill="#EBEBEB"/>
<path d="M525.065 354.193C590.271 288.988 590.271 183.269 525.065 118.064C459.86 52.8592 354.142 52.8592 288.937 118.064C223.732 183.269 223.732 288.988 288.937 354.193C354.142 419.398 459.86 419.398 525.065 354.193Z" fill="#DBDBDB"/>
<path d="M465.802 381.086C545.848 348.615 584.415 257.403 551.945 177.357C519.474 97.3119 428.262 58.7448 348.216 91.2154C268.171 123.686 229.604 214.898 262.074 294.944C294.545 374.989 385.757 413.556 465.802 381.086Z" fill="white"/>
<path d="M409.045 91.0984H405.045V114.783H409.045V91.0984Z" fill="#EBEBEB"/>
<path d="M336.192 109.562L332.727 111.562L344.566 132.075L348.031 130.076L336.192 109.562Z" fill="#EBEBEB"/>
<path d="M282.349 161.832L280.349 165.298L300.863 177.136L302.862 173.671L282.349 161.832Z" fill="#EBEBEB"/>
<path d="M285.66 234.168H261.975V238.169H285.66V234.168Z" fill="#EBEBEB"/>
<path d="M302.795 297.469L282.19 309.311L284.19 312.792L304.796 300.95L302.795 297.469Z" fill="#EBEBEB"/>
<path d="M344.598 340.285L332.766 360.803L336.232 362.802L348.064 342.284L344.598 340.285Z" fill="#EBEBEB"/>
<path d="M409.045 357.5H405.045V381.185H409.045V357.5Z" fill="#EBEBEB"/>
<path d="M469.432 340.373L465.967 342.374L477.809 362.885L481.274 360.885L469.432 340.373Z" fill="#EBEBEB"/>
<path d="M513.141 295.111L511.14 298.576L531.652 310.419L533.653 306.954L513.141 295.111Z" fill="#EBEBEB"/>
<path d="M552.115 234.168H528.377V238.169H552.115V234.168Z" fill="#EBEBEB"/>
<path d="M534.477 163.713L513.871 175.556L515.872 179.037L536.477 167.194L534.477 163.713Z" fill="#EBEBEB"/>
<path d="M477.835 109.588L466.004 130.106L469.469 132.105L481.301 111.587L477.835 109.588Z" fill="#EBEBEB"/>
<path d="M430.226 185.991L361.614 320.882L365.18 322.696L433.792 187.805L430.226 185.991Z" fill="#EBEBEB"/>
<path d="M399.034 182.381L393.803 183.428L423.059 329.573L428.289 328.526L399.034 182.381Z" fill="#DBDBDB"/>
<path d="M2284.58 181.197H1526.4V1615.74H2284.58V181.197Z" fill="#EBEBEB"/>
<path d="M2219.66 252.572H1591.32V1163.38H2219.66V252.572Z" fill="white"/>
<path d="M1631.43 1760.09H1581.34V1615.74H1670.48L1631.43 1760.09Z" fill="#EBEBEB"/>
<path d="M1670.48 1615.74L1656.08 1668.92H1581.29V1615.74H1670.48Z" fill="#C7C7C7"/>
<path d="M2179.5 1760.09H2229.59V1615.74H2140.45L2179.5 1760.09Z" fill="#EBEBEB"/>
<path d="M2140.45 1615.74L2154.85 1668.92H2229.64V1615.74H2140.45Z" fill="#C7C7C7"/>
<path d="M2219.66 1228.4C2172.56 1229.36 2125.51 1229.9 2078.46 1230.27C2031.41 1230.64 1984.31 1230.7 1937.26 1230.96L1939.82 1228.4C1939.82 1252.03 1939.82 1275.72 1939.82 1299.4V1370.41C1939.29 1417.78 1938.81 1465.09 1937.63 1512.46C1936.4 1465.09 1935.92 1417.78 1935.39 1370.41L1935.12 1299.4C1935.12 1275.72 1935.12 1252.03 1935.12 1228.4V1225.79H1937.69C1984.73 1226.06 2031.78 1225.79 2078.89 1226.48C2125.99 1227.18 2172.56 1227.39 2219.66 1228.4Z" fill="#C7C7C7"/>
<path d="M1937.26 1553.16C1984.31 1552.15 2031.36 1551.62 2078.46 1551.24C2125.56 1550.87 2172.56 1550.82 2219.66 1550.55L2217 1553.16C2217 1529.91 2217 1506.7 2217 1483.5L2217.32 1413.83C2217.8 1367.36 2218.28 1320.96 2219.5 1274.49C2220.68 1320.96 2221.16 1367.36 2221.64 1413.83L2221.96 1483.5C2221.96 1506.7 2222.22 1529.91 2221.96 1553.16V1555.72H2219.4C2172.29 1555.46 2125.24 1555.72 2078.19 1555.08C2031.14 1554.44 1984.31 1553.96 1937.26 1553.16Z" fill="#C7C7C7"/>
<path d="M1968.84 1426.68H1990.23V1344.75H1968.84V1426.68Z" fill="#C7C7C7"/>
<path d="M1591.32 1228.4C1638.37 1227.39 1685.42 1226.86 1732.52 1226.48C1779.63 1226.11 1826.62 1226.06 1873.73 1225.79H1876.23V1228.4C1876.23 1252.03 1876.23 1275.72 1876.23 1299.4L1875.91 1370.41C1875.43 1417.78 1874.95 1465.09 1873.73 1512.46C1872.5 1465.09 1872.02 1417.78 1871.48 1370.41L1871.22 1299.4C1871.22 1275.72 1871.22 1252.03 1871.22 1228.4L1873.78 1230.96C1826.68 1230.7 1779.63 1230.96 1732.58 1230.27C1685.53 1229.58 1638.37 1229.36 1591.32 1228.4Z" fill="#C7C7C7"/>
<path d="M1873.72 1553.16C1826.62 1554.12 1779.57 1554.66 1732.52 1555.08C1685.47 1555.51 1638.37 1555.46 1591.32 1555.72H1588.76V1553.16C1588.76 1529.91 1588.76 1506.7 1588.76 1483.5L1589.08 1413.83C1589.56 1367.36 1590.04 1320.96 1591.27 1274.49C1592.44 1320.96 1592.92 1367.36 1593.4 1413.83L1593.72 1483.5C1593.72 1506.7 1593.99 1529.91 1593.72 1553.16L1591.16 1550.55C1638.21 1550.55 1685.26 1550.55 1732.36 1551.24C1779.47 1551.94 1826.62 1551.99 1873.72 1553.16Z" fill="#C7C7C7"/>
<path d="M1842.09 1344.69H1820.7V1426.63H1842.09V1344.69Z" fill="#C7C7C7"/>
<path d="M2219.66 543.459H1591.32V553.222H2219.66V543.459Z" fill="#C7C7C7"/>
<path d="M2219.66 741.154H1591.32V750.916H2219.66V741.154Z" fill="#C7C7C7"/>
<path d="M2219.66 938.849H1591.32V948.611H2219.66V938.849Z" fill="#C7C7C7"/>
<path d="M1912.72 252.572H1898.26V1163.38H1912.72V252.572Z" fill="#EBEBEB"/>
<path d="M754.984 1212.29L767.734 1288.84L854.205 1755.82H868.128L805.288 1288.84L795.953 1212.29H754.984Z" fill="#EBEBEB"/>
<path d="M795.953 1212.29H754.984L767.734 1288.84H805.288L795.953 1212.29Z" fill="#C7C7C7"/>
<path d="M483.461 1755.82H497.384L583.855 1288.84L596.605 1212.29H555.636L546.301 1288.84L483.461 1755.82Z" fill="#EBEBEB"/>
<path d="M555.636 1212.29L546.301 1288.84H583.855L596.605 1212.29H555.636Z" fill="#C7C7C7"/>
<path d="M224.1 1755.82H238.023L324.494 1288.84L337.244 1212.29H296.275L286.94 1288.84L224.1 1755.82Z" fill="#EBEBEB"/>
<path d="M286.94 1288.84H324.494L337.244 1212.29H296.275L286.94 1288.84Z" fill="#C7C7C7"/>
<path d="M246.185 1248.3H879.81V1196.88L642.587 1181.51L562.891 721.737H270.35L246.185 1248.3Z" fill="#EBEBEB"/>
<path d="M246.185 1248.3H280.752L303.263 721.737H270.35L246.185 1248.3Z" fill="#C7C7C7"/>
<path d="M1155.44 2160.54C1554.17 2160.54 1877.41 2106.35 1877.41 2039.51C1877.41 1972.66 1554.17 1918.47 1155.44 1918.47C756.712 1918.47 433.477 1972.66 433.477 2039.51C433.477 2106.35 756.712 2160.54 1155.44 2160.54Z" fill="#EBEBEB"/>
<path d="M295.902 2090.56C442.914 2090.56 562.091 2065.41 562.091 2034.38C562.091 2003.36 442.914 1978.21 295.902 1978.21C148.89 1978.21 29.7129 2003.36 29.7129 2034.38C29.7129 2065.41 148.89 2090.56 295.902 2090.56Z" fill="#EBEBEB"/>
<path d="M1957.74 2090.56C2104.75 2090.56 2223.93 2065.41 2223.93 2034.38C2223.93 2003.36 2104.75 1978.21 1957.74 1978.21C1810.73 1978.21 1691.55 2003.36 1691.55 2034.38C1691.55 2065.41 1810.73 2090.56 1957.74 2090.56Z" fill="#EBEBEB"/>
<path d="M0 1760.09L288.86 1758.81L577.721 1758.33L1155.44 1757.47L1733.16 1758.33L2022.02 1758.81L2310.88 1760.09L2022.02 1761.42L1733.16 1761.9L1155.44 1762.75L577.721 1761.9L288.86 1761.42L0 1760.09Z" fill="#263238"/>
<path d="M1281.55 1006.81H871.969V1759.29H1281.55V1006.81Z" fill="#455A64"/>
<path d="M1281.55 1006.81H871.969V1055.89H1281.55V1006.81Z" fill="#263238"/>
<path d="M1457.42 967.281H44.2225V1006.86H1457.42V967.281Z" fill="#455A64"/>
<path d="M131.601 1006.86L130.267 1055.89L113.037 1759.34H81.7238V1006.86H131.601Z" fill="#455A64"/>
<path d="M81.7238 1006.86H131.601L130.267 1055.89H81.7238V1006.86Z" fill="#263238"/>
<path d="M1420.35 1006.81H1281.55V1759.29H1420.35V1006.81Z" fill="#37474F"/>
<path d="M1420.35 1006.81H1281.55V1055.89H1420.35V1006.81Z" fill="#263238"/>
<path d="M457.856 1453.73C439.719 1435.97 416.3 1414.52 388.508 1422.15C362.476 1429.35 352.5 1457.84 347.806 1481.52C341.831 1512.04 337.137 1542.87 332.283 1573.65C327.428 1604.43 322.787 1635.79 318.306 1666.89C315.817 1684.46 313.328 1702.01 310.838 1719.55L307.264 1745.9C306.091 1754.54 304.65 1763.13 304.17 1771.82C304.17 1774.6 308.384 1775.02 308.971 1772.36C312.332 1757.69 313.719 1742.48 315.853 1727.6C317.986 1712.72 320.173 1697.73 322.414 1682.74C326.753 1653.04 331.18 1623.37 335.697 1593.71C340.213 1564.05 344.836 1534.37 349.566 1504.67C353.567 1479.5 355.434 1448.29 377.732 1431.7C383.776 1427.55 390.778 1425.01 398.078 1424.31C405.377 1423.62 412.733 1424.81 419.448 1427.75C434.117 1433.35 446.12 1443.75 457.322 1454.42C457.696 1454.58 458.176 1454.05 457.856 1453.73Z" fill="#263238"/>
<path d="M433.05 1435.81C433.05 1435.81 396.029 1422.47 377.732 1449.46C359.435 1476.45 381.306 1545.48 549.928 1584C544.964 1531.29 531.244 1479.78 509.333 1431.59C473.219 1352.59 408.619 1382.46 433.05 1435.81Z" fill="#FFC727"/>
<path d="M540.22 1572.58C537.679 1567.84 534.846 1563.26 531.738 1558.87C528.911 1554.55 526.083 1550.23 523.203 1545.91C521.016 1542.65 518.828 1539.45 516.588 1536.25C516.588 1535.45 516.588 1534.65 516.908 1533.85C517.228 1533.05 517.281 1530.92 517.495 1529.48C517.922 1526.28 518.348 1523.13 518.828 1519.98C519.309 1516.84 519.789 1513.74 520.429 1510.59C520.805 1507.22 521.538 1503.89 522.616 1500.67C522.616 1500.19 521.976 1499.93 521.869 1500.67C521.516 1502.49 521.017 1504.27 520.375 1506.01L519.255 1510.27C518.455 1513.48 517.655 1516.68 516.908 1519.93C516.161 1523.18 515.681 1525.85 515.201 1528.89C514.952 1530.35 514.739 1531.79 514.561 1533.21C511.52 1528.89 508.48 1524.68 505.332 1520.52C496.37 1508.73 486.875 1497.37 477.113 1486.27C477.113 1486.27 477.113 1486.27 477.113 1486C478.02 1468.24 477.593 1450.74 481.541 1433.3C481.541 1432.82 480.9 1432.55 480.794 1433.03C476.336 1449.46 474.217 1466.43 474.499 1483.44C470.978 1479.49 467.458 1475.6 463.83 1471.76C455.615 1462.9 447.24 1454.23 438.705 1445.73C438.385 1445.41 437.851 1445.73 438.172 1446.26C452.361 1461.52 465.857 1477.47 478.98 1493.68C468.708 1493.53 458.434 1493.9 448.2 1494.8C436.731 1495.66 425.422 1497.15 414.06 1498.7C413.58 1498.7 413.686 1499.5 414.06 1499.45C425.359 1497.82 436.738 1496.81 448.147 1496.41C459.189 1495.93 470.125 1496.41 481.114 1496.41C488.209 1505.21 495.25 1514.06 502.132 1523.08H492.85C487.515 1523.08 482.554 1523.56 477.486 1523.98C467.01 1524.83 456.602 1526.38 446.333 1528.63C446.234 1528.63 446.139 1528.66 446.069 1528.73C445.999 1528.8 445.96 1528.9 445.96 1529C445.96 1529.1 445.999 1529.19 446.069 1529.26C446.139 1529.33 446.234 1529.37 446.333 1529.37C456.682 1528.2 467.084 1527.24 477.486 1526.86C482.447 1526.86 487.409 1526.86 492.423 1526.86H500.158C501.59 1527.07 503.05 1526.94 504.425 1526.49C508.96 1532.36 513.494 1538.28 517.975 1544.2C521.531 1548.9 525.087 1553.64 528.644 1558.44C532.218 1563.35 535.419 1568.69 539.313 1573.27C539.899 1573.33 540.38 1572.95 540.22 1572.58Z" fill="#263238"/>
<path d="M449.16 1473.89C443.186 1473.09 437.155 1472.78 431.13 1472.99C425.102 1472.99 419.127 1472.99 413.1 1473.36C412.566 1473.36 412.566 1474.16 413.1 1474.11C419.181 1473.68 425.262 1473.57 431.397 1473.68C437.531 1473.79 443.186 1474.32 449.107 1474.16C449.374 1474.16 449.374 1473.89 449.16 1473.89Z" fill="#263238"/>
<path d="M502.078 1487.44C502.772 1481.68 503.519 1475.92 504.745 1470.27C504.745 1469.73 504.052 1469.52 503.999 1470.27C503.145 1475.92 502.025 1481.52 501.171 1487.23C500.745 1490.06 500.371 1492.88 500.051 1495.77C499.527 1498.4 499.295 1501.08 499.358 1503.77C499.358 1503.89 499.408 1504.02 499.498 1504.11C499.588 1504.2 499.71 1504.25 499.838 1504.25C499.965 1504.25 500.087 1504.2 500.177 1504.11C500.267 1504.02 500.318 1503.89 500.318 1503.77C500.833 1501.11 501.137 1498.42 501.225 1495.71C501.491 1492.94 501.758 1490.22 502.078 1487.44Z" fill="#263238"/>
<path d="M490.983 1423.64C489.542 1428.98 488.049 1434.95 487.035 1440.66C486.502 1443.54 486.075 1446.42 485.648 1449.36C485.124 1452.17 484.945 1455.03 485.115 1457.89C485.115 1457.89 485.488 1457.89 485.541 1457.89C486.206 1455.23 486.652 1452.52 486.875 1449.78C487.248 1446.95 487.675 1444.18 488.155 1441.41C489.169 1435.54 490.236 1429.72 491.729 1423.91C491.836 1423.43 491.143 1423.16 490.983 1423.64Z" fill="#263238"/>
<path d="M271.47 1765.58C270.51 1754.91 269.496 1744.24 268.376 1733.58C266.189 1712.56 263.575 1691.59 260.801 1670.68C258.027 1649.77 255.467 1628.91 251.946 1608.11C250.673 1598.51 248.512 1589.04 245.491 1579.84C244.383 1575.84 242.359 1572.17 239.581 1569.09C236.804 1566.02 233.348 1563.63 229.488 1562.13C209.644 1555.24 196.308 1575.84 188.253 1590.4C188.253 1590.83 188.679 1591.15 188.946 1590.77C193.747 1583.84 206.977 1564.53 222.02 1565.38C232.155 1566.02 240.264 1573.17 245.118 1598.45C257.227 1661.35 268.163 1789 269.443 1797.32C270.083 1801.75 273.23 1801.59 273.284 1796.84C273.604 1786.44 272.377 1775.98 271.47 1765.58Z" fill="#263238"/>
<path d="M193.907 1582.61C193.907 1582.61 211.244 1521.16 172.889 1551.99C108.876 1602.93 106.849 1713.78 106.849 1713.78C106.849 1713.78 220.259 1647.9 234.342 1604.48C255.36 1539.77 193.907 1582.61 193.907 1582.61Z" fill="#FFC727"/>
<path d="M215.352 1612.64C206.443 1614.46 197.428 1615.63 188.679 1616.96L175.877 1618.72C173.049 1619.15 170.115 1619.42 167.235 1619.74C175.663 1608.11 184.198 1596.53 192.307 1584.64C192.627 1584.21 191.88 1583.73 191.507 1584.1C184.788 1591.03 178.465 1598.33 172.569 1605.97L167.555 1591.73C165.635 1586.4 163.554 1580.8 162.22 1575.2C162.22 1574.72 161.367 1574.93 161.474 1575.2C163.021 1580.8 164.141 1586.5 165.635 1592.16C167.128 1597.81 168.728 1602.83 170.649 1608.16C166.488 1613.5 162.487 1619.1 158.646 1624.65C156.673 1619.31 154.272 1613.98 152.565 1608.16C152.565 1607.68 151.658 1608.16 151.818 1608.16C153.845 1614.4 154.966 1620.86 156.886 1627.1C154.272 1630.89 151.552 1634.73 149.151 1638.57C144.617 1645.61 140.296 1652.81 136.028 1659.91C135.707 1660.05 135.441 1660.3 135.268 1660.6C135.096 1660.91 135.025 1661.26 135.068 1661.61C127.867 1674.04 121.092 1686.63 114.37 1699.27C114.37 1699.75 114.797 1700.13 115.011 1699.65C121.732 1687.11 129.254 1674.95 137.042 1662.95C138.254 1662.55 139.507 1662.3 140.776 1662.2L144.67 1661.35C147.604 1660.71 150.538 1659.96 153.419 1659.27C159.18 1657.83 164.888 1656.44 170.702 1655.48C171.182 1655.48 170.702 1654.63 170.702 1654.73C163.821 1656.01 156.939 1656.81 150.005 1657.61C146.751 1657.99 143.497 1658.41 140.243 1658.95H139.762C143.817 1652.76 147.977 1646.62 152.138 1640.54C156.299 1634.46 160.513 1628.65 164.781 1622.78C168.675 1622.19 172.569 1621.18 176.517 1620.43L189.64 1617.87C198.441 1616.11 207.19 1614.14 215.992 1612.54C216.045 1613.28 215.832 1612.54 215.352 1612.64Z" fill="#263238"/>
<path d="M147.231 1618.67C146.751 1617.07 146.217 1615.47 145.737 1613.82C144.678 1610.45 143.806 1607.03 143.123 1603.57C143.123 1603.09 142.27 1603.31 142.376 1603.57C143.123 1607.04 143.923 1610.46 144.724 1613.92C145.457 1617.39 146.456 1620.8 147.711 1624.11C147.793 1624.24 147.918 1624.35 148.064 1624.4C148.211 1624.45 148.372 1624.45 148.52 1624.4C148.668 1624.36 148.795 1624.26 148.88 1624.13C148.966 1624 149.005 1623.84 148.991 1623.69C148.458 1622.14 147.764 1620.43 147.231 1618.67Z" fill="#263238"/>
<path d="M227.247 1598.51C221.913 1599.25 216.579 1599.63 211.617 1600.05C206.656 1600.48 200.949 1601.28 196.041 1602.03V1602.51C201.375 1602.13 206.71 1601.76 211.671 1601.07C216.632 1600.37 222.02 1599.63 227.247 1599.25C227.247 1599.2 227.247 1598.4 227.247 1598.51Z" fill="#263238"/>
<path d="M354.901 1688.07C352.927 1643 350.046 1598.03 345.512 1553.11C343.272 1530.76 340.765 1508.41 337.617 1486.16C334.794 1464.29 330.463 1442.63 324.655 1421.35C320.728 1404.83 313.467 1389.29 303.317 1375.69C298.265 1369.07 291.614 1363.86 283.99 1360.53C276.365 1357.19 268.018 1355.86 259.734 1356.64C239.997 1359.1 224.1 1371.53 210.391 1385.02C194.974 1400.17 180.838 1416.71 166.595 1433.03C162.967 1437.14 159.393 1441.25 155.926 1445.41C155.606 1445.78 155.926 1446.31 156.513 1445.94C170.436 1429.94 184.945 1414.31 200.148 1399.42C214.125 1385.66 228.581 1370.62 248.159 1364.91C257.188 1362.04 266.852 1361.81 276.004 1364.27C283.274 1366.57 289.819 1370.73 294.995 1376.33C305.323 1388.32 312.639 1402.6 316.333 1417.99C328.495 1459.44 332.816 1502.86 337.297 1545.64C341.778 1588.42 344.979 1632.7 347.166 1676.34C349.353 1719.97 351.06 1764.19 355.274 1807.94C355.808 1813.27 356.501 1818.61 357.195 1823.94C357.675 1827.57 363.276 1827.57 363.009 1823.94C359.008 1778.65 356.928 1733.41 354.901 1688.07Z" fill="#263238"/>
<path d="M207.67 1389.93C207.67 1389.93 233.435 1342.29 203.029 1326.98C172.623 1311.67 70.7881 1425.14 41.0752 1591.46C41.0752 1591.46 205.483 1518.76 261.335 1446.26C317.186 1373.77 253.92 1357.82 207.67 1389.93Z" fill="#FFC727"/>
<path d="M231.888 1428.66C213.378 1428.66 194.974 1427.27 176.464 1427.38L187.132 1415.48C192.305 1410.21 197.134 1404.62 201.589 1398.73C201.589 1398.3 201.589 1397.77 200.949 1398.09C195.923 1402.39 191.25 1407.08 186.972 1412.12C182.331 1417.03 177.69 1421.94 173.156 1426.9C166.061 1434.53 159.127 1442.31 152.245 1450.1C152.245 1449.36 152.245 1448.61 152.245 1447.86C152.245 1444.61 152.245 1441.41 152.245 1438.15V1419.38C152.245 1406.63 152.245 1393.88 153.259 1381.18C153.259 1380.7 152.512 1380.75 152.458 1381.18C151.605 1393.93 150.271 1406.57 149.631 1419.38C149.631 1425.62 149.204 1431.91 149.098 1438.15C149.098 1441.41 149.098 1444.66 149.098 1447.86C149.098 1449.62 149.098 1451.49 149.098 1453.2C148.031 1454.42 146.911 1455.6 145.79 1456.82C131.067 1473.68 117.038 1491.12 103.382 1508.83C103.382 1507.87 103.382 1506.86 103.382 1505.9L102.741 1500.03C102.261 1495.82 101.675 1491.6 101.034 1487.39C100.394 1483.18 99.8075 1479.44 99.1673 1475.49C98.5272 1471.55 97.3003 1466.53 96.9802 1462.05C96.9802 1461.95 96.9409 1461.86 96.8708 1461.79C96.8008 1461.72 96.7058 1461.68 96.6068 1461.68C96.5078 1461.68 96.4128 1461.72 96.3428 1461.79C96.2727 1461.86 96.2334 1461.95 96.2334 1462.05C97.0149 1466.53 97.5314 1471.06 97.7804 1475.6L98.9006 1487.82C99.274 1491.87 99.6474 1495.93 100.074 1500.03C100.074 1501.95 100.448 1503.93 100.661 1505.85L100.981 1508.78C101.073 1509.61 101.346 1510.41 101.781 1511.13L94.7397 1520.3C85.4578 1532.63 76.2826 1545.11 67.1073 1557.64C67.1073 1558.02 67.1073 1558.55 67.6941 1558.18C76.3359 1546.87 85.2444 1535.77 94.3663 1524.78C101.141 1524.78 108.023 1524.78 114.797 1524.46C121.572 1524.14 129.04 1524.46 136.135 1524.46C136.234 1524.46 136.329 1524.42 136.399 1524.35C136.469 1524.28 136.508 1524.19 136.508 1524.09C136.508 1523.99 136.469 1523.9 136.399 1523.83C136.329 1523.76 136.234 1523.72 136.135 1523.72H114.797C108.289 1523.72 101.621 1523.4 95.1665 1523.72C103.133 1514.08 111.134 1504.46 119.172 1494.86C122.105 1491.39 125.093 1487.92 128.027 1484.19C130.748 1484.57 133.502 1484.66 136.242 1484.46H146.004C152.032 1484.46 158.113 1484.46 164.194 1484.19C176.73 1484.19 189.319 1483.6 201.855 1483.55C201.954 1483.55 202.049 1483.51 202.119 1483.44C202.19 1483.37 202.229 1483.27 202.229 1483.18C202.229 1483.08 202.19 1482.98 202.119 1482.91C202.049 1482.84 201.954 1482.8 201.855 1482.8C189.266 1482.8 176.73 1482.11 164.141 1481.79C158.06 1481.79 151.978 1481.42 145.897 1481.36H136.188C134.321 1481.36 132.454 1481.36 130.854 1481.36C137.735 1473.2 144.617 1464.99 151.552 1456.82C151.703 1456.71 151.83 1456.56 151.925 1456.4C158.646 1448.43 165.403 1440.5 172.196 1432.61L175.023 1429.4C194.174 1429.99 213.325 1428.71 232.475 1429.08C232.507 1429.01 232.512 1428.92 232.489 1428.84C232.466 1428.76 232.417 1428.69 232.349 1428.64C232.282 1428.59 232.2 1428.57 232.116 1428.57C232.032 1428.57 231.952 1428.6 231.888 1428.66V1428.66Z" fill="#263238"/>
<path d="M222.393 1461.3H217.912C217.485 1461.3 217.539 1462 217.912 1462H222.393C222.926 1462.1 222.926 1461.3 222.393 1461.3Z" fill="#263238"/>
<path d="M212.471 1461.36C206.55 1461.36 200.629 1461.36 194.707 1460.98L185.799 1460.72C183.071 1460.37 180.311 1460.37 177.584 1460.72C177.513 1460.72 177.445 1460.75 177.395 1460.8C177.345 1460.85 177.317 1460.91 177.317 1460.98C177.317 1461.06 177.345 1461.12 177.395 1461.17C177.445 1461.22 177.513 1461.25 177.584 1461.25C180.3 1461.82 183.082 1462.02 185.852 1461.84H194.707H212.471C212.519 1461.77 212.545 1461.68 212.545 1461.6C212.545 1461.51 212.519 1461.43 212.471 1461.36V1461.36Z" fill="#263238"/>
<path d="M160.78 1516.84C148.748 1514.87 136.589 1513.79 124.399 1513.58V1513.85C136.508 1515.02 148.618 1515.66 160.567 1517.58C160.666 1517.61 160.772 1517.6 160.862 1517.55C160.952 1517.5 161.019 1517.42 161.047 1517.32C161.075 1517.22 161.063 1517.11 161.013 1517.02C160.963 1516.93 160.879 1516.86 160.78 1516.84V1516.84Z" fill="#263238"/>
<path d="M111.33 1463.97C111.33 1462.91 111.33 1461.84 110.957 1460.77C110.69 1458.42 110.316 1456.02 109.943 1453.68C109.196 1449.14 108.396 1444.66 107.542 1440.18C107.542 1439.75 106.742 1439.86 106.796 1440.18C107.382 1444.82 107.863 1449.46 108.343 1454.16C108.343 1456.45 108.716 1458.74 108.929 1460.98C108.838 1463.3 109.164 1465.61 109.89 1467.81C110.21 1468.51 111.277 1468.19 111.49 1467.55C111.7 1466.36 111.645 1465.14 111.33 1463.97V1463.97Z" fill="#263238"/>
<path d="M353.3 1328.74C347.433 1317.75 339.911 1303.3 325.241 1304.21C313.132 1305.01 307.638 1317.38 305.077 1327.57C297.022 1359.2 296.595 1392.6 294.942 1425.14C291.634 1493.68 288.647 1562.29 288.22 1630.89C288.22 1649.88 288.22 1668.92 288.22 1687.91C288.22 1706.9 288.22 1726.85 289.554 1746.22C289.618 1746.55 289.794 1746.84 290.052 1747.05C290.31 1747.27 290.633 1747.38 290.967 1747.38C291.302 1747.38 291.625 1747.27 291.883 1747.05C292.141 1746.84 292.317 1746.55 292.381 1746.22C292.381 1729.63 291.901 1713.04 291.848 1696.45C291.794 1679.86 291.848 1664.07 292.168 1647.85C292.701 1615.1 293.572 1582.33 294.782 1549.54C296.009 1516.94 297.449 1484.4 298.836 1451.81L300.916 1403C301.663 1387 302.303 1371.42 304.117 1355.74C305.13 1346.93 306.464 1338.19 308.278 1329.49C309.201 1323.07 311.815 1317.01 315.853 1311.94C318.655 1309.21 322.334 1307.55 326.239 1307.27C330.144 1306.98 334.023 1308.09 337.19 1310.39C343.956 1315.11 349.305 1321.58 352.66 1329.12C352.874 1329.54 353.514 1329.12 353.3 1328.74Z" fill="#263238"/>
<path d="M349.353 1323.78C349.353 1323.78 337.244 1281.11 363.969 1302.44C408.405 1337.92 409.952 1415.16 409.952 1415.16C409.952 1415.16 330.949 1369.29 321.134 1338.99C306.517 1293.64 349.353 1323.78 349.353 1323.78Z" fill="#FFC727"/>
<path d="M393.362 1383.21L391.122 1379.74C391.202 1378.53 391.202 1377.32 391.122 1376.11C391.122 1374.25 391.122 1372.43 391.122 1370.78C391.122 1367.15 391.122 1363.58 391.495 1360.11C391.495 1359.63 390.802 1359.63 390.748 1360.11C390.748 1363.68 390.428 1367.2 390.321 1370.78V1376.11C390.321 1376.75 390.321 1377.55 390.321 1378.35C387.228 1373.55 384.027 1368.81 380.719 1364.11C379.759 1362.72 378.799 1361.39 377.786 1360.06C377.412 1355.42 377.412 1350.77 377.786 1346.13C377.786 1341.17 377.786 1336.21 377.786 1331.3C377.786 1330.77 377.039 1330.82 377.039 1331.3C377.039 1336.64 376.665 1341.6 376.399 1346.77C376.079 1350.43 375.972 1354.1 376.079 1357.76C368.45 1347.41 360.342 1337.39 352.18 1327.46C351.913 1327.14 351.327 1327.46 351.593 1327.94C356.661 1334.34 361.515 1340.96 366.263 1347.63C356.981 1345.44 347.539 1344.21 338.097 1342.83C337.617 1342.83 337.404 1343.52 338.097 1343.57C348.126 1345.07 357.941 1347.57 367.81 1349.76C371.544 1355.1 375.332 1360.43 379.012 1365.76C380.559 1367.95 382 1370.19 383.493 1372.38H383.067L380.026 1371.95C377.839 1371.69 375.652 1371.53 373.465 1371.37C368.877 1370.99 364.343 1370.78 359.755 1370.51C359.656 1370.51 359.561 1370.55 359.491 1370.62C359.421 1370.69 359.382 1370.79 359.382 1370.89C359.382 1370.98 359.421 1371.08 359.491 1371.15C359.561 1371.22 359.656 1371.26 359.755 1371.26C364.289 1371.26 368.717 1371.74 373.198 1372.22C375.545 1372.22 377.892 1372.81 380.293 1373.07L383.333 1373.45H384.24L391.868 1384.65C396.296 1391.21 400.297 1398.3 405.045 1404.65C405.365 1405.03 405.898 1404.65 405.685 1404.28C401.973 1397.03 397.859 1390 393.362 1383.21V1383.21Z" fill="#263238"/>
<path d="M373.678 1335.04C373.678 1333.38 373.678 1331.73 373.678 1330.08C373.598 1326.52 373.741 1322.95 374.105 1319.41C374.105 1319.31 374.065 1319.21 373.995 1319.14C373.925 1319.07 373.83 1319.03 373.731 1319.03C373.632 1319.03 373.537 1319.07 373.467 1319.14C373.397 1319.21 373.358 1319.31 373.358 1319.41C373.358 1322.82 372.985 1326.29 372.824 1329.76C372.824 1331.46 372.824 1333.22 372.824 1335.09C372.824 1335.89 372.824 1336.69 372.824 1337.49C372.69 1338.3 372.69 1339.13 372.824 1339.95C372.824 1340.03 372.858 1340.11 372.918 1340.17C372.978 1340.23 373.06 1340.27 373.145 1340.27C373.229 1340.27 373.311 1340.23 373.371 1340.17C373.431 1340.11 373.465 1340.03 373.465 1339.95C373.597 1339.19 373.597 1338.41 373.465 1337.65L373.678 1335.04Z" fill="#263238"/>
<path d="M363.916 1352.75C360.965 1352.29 357.991 1351.99 355.007 1351.84C351.753 1351.52 348.499 1351.25 345.245 1350.83C344.712 1350.83 344.605 1351.57 345.245 1351.57C351.487 1352 357.728 1353.12 363.969 1353.34C364.025 1353.31 364.07 1353.26 364.1 1353.2C364.13 1353.15 364.143 1353.09 364.137 1353.02C364.131 1352.96 364.107 1352.9 364.068 1352.85C364.029 1352.8 363.976 1352.77 363.916 1352.75Z" fill="#263238"/>
<path d="M388.721 1352.96C388.828 1353.51 388.828 1354.07 388.721 1354.62V1355.79C388.721 1356.8 388.721 1357.76 388.721 1358.78V1361.76C388.56 1362.63 388.56 1363.51 388.721 1364.38C388.721 1364.38 388.721 1364.38 389.041 1364.38C389.145 1363.96 389.145 1363.52 389.041 1363.1V1361.76C389.041 1360.75 389.041 1359.74 389.041 1358.78V1354.4C389.041 1353.98 389.041 1353.12 389.041 1352.75C389.041 1352.38 388.241 1352.27 388.721 1352.96Z" fill="#263238"/>
<path d="M355.274 1556.26C338.631 1543.83 323.694 1525.9 301.343 1525C282.939 1524.3 269.976 1538.17 262.615 1553.64C258.906 1561.87 255.873 1570.38 253.546 1579.09C250.239 1590.75 247.109 1602.49 244.158 1614.3C238.29 1637.55 233.311 1660.92 229.221 1684.39C226.981 1697.51 224.9 1710.64 223.247 1723.87C221.152 1737.26 219.851 1750.76 219.352 1764.3C219.391 1764.79 219.6 1765.26 219.943 1765.62C220.287 1765.97 220.743 1766.2 221.235 1766.26C221.727 1766.31 222.223 1766.2 222.639 1765.93C223.054 1765.66 223.363 1765.25 223.513 1764.78C225.754 1753.74 226.661 1742.32 228.314 1731.17C229.968 1720.03 231.622 1708.72 233.649 1697.51C237.418 1675.11 241.828 1652.85 246.878 1630.73C251.626 1609.82 256.32 1588.58 262.882 1568.21C267.683 1553.64 275.471 1536.57 291.207 1531.35C315.212 1523.34 336.977 1543.67 354.527 1556.84C355.274 1557.11 355.541 1556.58 355.274 1556.26Z" fill="#263238"/>
<path d="M337.937 1544.36C337.937 1544.36 322.627 1500.62 344.765 1492.03C377.999 1479.18 464.897 1577.06 447.88 1726.75C447.88 1726.75 380.719 1689.78 331.162 1648.17C281.605 1606.56 268.909 1552.15 290.727 1538.17C312.545 1524.2 337.937 1544.36 337.937 1544.36Z" fill="#FFC727"/>
<path d="M437.851 1694.85C435.52 1689.62 432.81 1684.58 429.743 1679.75C426.916 1674.42 424.035 1669.51 421.101 1664.44C415.34 1654.57 409.579 1644.65 403.658 1634.89L400.777 1630.14C400.777 1629.55 400.777 1628.97 401.15 1628.38L402.111 1624.06C402.857 1620.8 403.444 1617.5 404.031 1614.24C405.258 1607.84 406.325 1601.33 408.085 1595.04C408.085 1594.94 408.046 1594.85 407.976 1594.78C407.906 1594.71 407.811 1594.67 407.712 1594.67C407.613 1594.67 407.518 1594.71 407.448 1594.78C407.378 1594.85 407.338 1594.94 407.338 1595.04C405.951 1601.44 403.924 1607.79 402.004 1614.03C401.044 1617.12 400.084 1620.22 399.23 1623.37C399.23 1624.43 398.697 1625.5 398.377 1626.57C391.282 1614.83 384.027 1603.2 376.185 1591.95C376.687 1590.39 376.939 1588.77 376.932 1587.14L377.732 1580.58C378.319 1575.62 378.852 1570.71 379.599 1565.81C380.871 1556.14 382.652 1546.54 384.934 1537.05C384.934 1536.57 384.347 1536.47 384.187 1537.05C381.84 1546.5 379.226 1555.94 377.412 1565.49C376.559 1570.18 375.705 1574.93 375.065 1579.62C374.745 1582.02 374.532 1584.37 374.265 1586.77C374.265 1587.46 374.265 1588.21 374.265 1588.9C371.864 1585.49 369.464 1582.13 366.903 1578.82C359.275 1568.74 351.327 1558.87 343.272 1549.06C343.272 1548.68 342.365 1549.06 342.685 1549.48C356.416 1567.05 369.013 1585.47 380.399 1604.64C382.64 1608.16 384.774 1611.68 386.961 1615.31L384.774 1615.04C382 1614.72 379.119 1614.51 376.345 1614.24L359.382 1612.8C348.073 1611.9 336.71 1611.2 325.455 1609.98C324.975 1609.98 324.815 1610.67 325.455 1610.72C336.924 1612.06 348.286 1613.87 359.648 1615.52C364.983 1616.32 370.851 1617.07 376.505 1617.76C380.756 1618.62 385.079 1619.07 389.415 1619.1C393.896 1626.21 398.341 1633.43 402.751 1640.76C401.757 1640.67 400.758 1640.67 399.763 1640.76H383.76C376.452 1640.76 369.197 1640.76 361.889 1640.76C361.409 1640.76 361.516 1641.5 361.889 1641.5C369.25 1641.5 376.612 1641.98 383.974 1642.36C387.494 1642.36 390.962 1642.73 394.642 1643L399.977 1643.37C401.489 1643.69 403.052 1643.69 404.565 1643.37C408.352 1649.5 412.193 1655.64 415.927 1661.77C419.661 1667.91 422.915 1673.08 426.596 1678.68C429.972 1684.67 433.787 1690.39 438.012 1695.81C438.075 1695.8 438.135 1695.77 438.189 1695.74C438.243 1695.71 438.29 1695.66 438.328 1695.61C438.365 1695.56 438.391 1695.5 438.406 1695.44C438.42 1695.37 438.422 1695.31 438.412 1695.25C438.401 1695.18 438.378 1695.12 438.344 1695.07C438.311 1695.02 438.266 1694.97 438.214 1694.93C438.162 1694.89 438.104 1694.87 438.041 1694.85C437.979 1694.84 437.915 1694.84 437.851 1694.85V1694.85Z" fill="#263238"/>
<path d="M405.845 1573.65C405.167 1578.47 404.169 1583.25 402.857 1587.94C401.577 1592.8 400.19 1597.6 398.59 1602.35C398.569 1602.41 398.56 1602.47 398.563 1602.53C398.567 1602.6 398.582 1602.66 398.61 1602.71C398.637 1602.77 398.675 1602.82 398.722 1602.86C398.769 1602.91 398.824 1602.94 398.883 1602.96C398.943 1602.98 399.006 1602.99 399.069 1602.99C399.132 1602.98 399.194 1602.97 399.251 1602.94C399.308 1602.91 399.359 1602.88 399.401 1602.83C399.443 1602.78 399.476 1602.73 399.497 1602.67C400.99 1597.92 402.324 1593.17 403.498 1588.32C404.671 1583.46 405.418 1578.61 406.592 1573.81C406.698 1573.33 405.898 1573.17 405.845 1573.65Z" fill="#263238"/>
<path d="M356.501 1602.93C355.484 1602.08 354.201 1601.61 352.874 1601.6L346.526 1600.75L334.737 1599.31C326.521 1598.35 318.36 1597.55 310.145 1596.53C309.665 1596.53 309.558 1597.23 310.145 1597.28C317.88 1598.19 325.508 1599.36 333.243 1600.37L344.552 1601.87L349.886 1602.45C351.995 1602.46 354.087 1602.82 356.074 1603.52C356.501 1603.73 356.768 1603.2 356.501 1602.93Z" fill="#263238"/>
<path d="M405.738 1668.92C401.844 1668.55 397.95 1668.44 394.109 1668.33H388.241H385.414C384.207 1668.44 382.993 1668.44 381.786 1668.33C381.2 1668.33 381.146 1669.19 381.786 1669.08C382.922 1668.97 384.065 1668.97 385.2 1669.08H388.241L394.109 1669.45C398.003 1669.45 401.897 1669.93 405.738 1669.93C406.165 1669.72 406.218 1668.92 405.738 1668.92Z" fill="#263238"/>
<path d="M429.37 1652.12C429.868 1649.91 430.294 1647.73 430.65 1645.56L433.05 1632.54C433.05 1632.44 433.011 1632.35 432.941 1632.28C432.871 1632.21 432.776 1632.17 432.677 1632.17C432.578 1632.17 432.483 1632.21 432.413 1632.28C432.343 1632.35 432.304 1632.44 432.304 1632.54L429.423 1645.18C428.943 1647.26 428.516 1649.4 428.036 1651.48C428.036 1652.49 427.663 1653.45 427.449 1654.41C427.133 1655.41 427.024 1656.46 427.129 1657.51C427.129 1657.88 427.716 1658.15 427.929 1657.51C428.742 1655.82 429.231 1653.99 429.37 1652.12V1652.12Z" fill="#263238"/>
<path d="M420.461 1781.37L416.727 1843.36L405.685 2026.33H179.451L168.408 1843.36L164.674 1781.37H420.461Z" fill="#455A64"/>
<path d="M420.461 1781.37L416.727 1843.36H168.408L164.674 1781.37H420.461Z" fill="#263238"/>
<path d="M437.798 1737.52H147.391V1799.56H437.798V1737.52Z" fill="#455A64"/>
<path d="M1121.41 1721.63C1121.41 1721.63 1090.2 1951.27 1090.2 1951.43C1089.61 1995.39 1088.33 2033.9 1085.83 2053.75C1085.85 2053.85 1085.85 2053.96 1085.83 2054.07C1085.78 2058.77 1084.61 2063.4 1082.41 2067.56L1082.15 2067.88C1068.97 2076.53 717.803 2082.29 705.481 2078.55C693.158 2074.82 703.4 2039.24 716.843 2028.14C730.286 2017.05 863.807 1954.69 863.807 1954.69L897.201 1725.31L1121.41 1721.63Z" fill="#AD6359"/>
<path d="M1089.72 1979.92C1089.03 2011.93 1087.8 2038.6 1085.83 2053.96C1085.85 2054.07 1085.85 2054.18 1085.83 2054.28C1085.78 2058.99 1084.61 2063.62 1082.41 2067.78C1082.41 2067.78 1082.41 2067.78 1082.41 2068.04C1069.18 2076.74 718.017 2082.45 705.694 2078.71C693.371 2074.98 703.614 2039.4 717.056 2028.3C723.511 2022.97 757.438 2006 791.045 1989.68C780.376 1998.06 769.707 2008.35 774.562 2012.51C782.937 2019.45 995.888 2011.93 1089.72 1979.92Z" fill="#263238"/>
<path d="M810.569 1979.92C810.569 1979.92 872.716 1951.65 979.298 2002.8Z" fill="#263238"/>
<path d="M1173.9 1879.9L867.861 1874.99L1021.87 726.698H1229.32L1173.9 1879.9Z" fill="#263238"/>
<path d="M1229.32 726.698L1190.01 1544.68L1086.84 726.698H1229.32Z" fill="#37474F"/>
<path d="M1159.18 1826.71C1149.95 1825.7 1140.5 1825.75 1131.22 1825.38C1121.94 1825.01 1113.41 1824.9 1104.55 1824.74C1086.09 1824.42 1067.69 1824.1 1049.23 1823.89C1012.8 1823.57 976.364 1823.3 939.93 1823.41C919.232 1823.41 898.641 1824.1 877.943 1825.01C877.837 1825.04 877.744 1825.11 877.678 1825.2C877.612 1825.29 877.576 1825.4 877.576 1825.51C877.576 1825.63 877.612 1825.74 877.678 1825.83C877.744 1825.92 877.837 1825.99 877.943 1826.02C914.591 1828.21 951.185 1828.79 987.886 1829.27C1024.59 1829.75 1060.75 1829.86 1097.19 1829.81C1107.43 1829.81 1117.62 1829.81 1127.86 1829.81C1138.1 1829.81 1148.88 1829.81 1159.18 1828.85C1159.46 1828.85 1159.73 1828.74 1159.93 1828.54C1160.13 1828.34 1160.24 1828.06 1160.24 1827.78C1160.24 1827.5 1160.13 1827.23 1159.93 1827.03C1159.73 1826.83 1159.46 1826.71 1159.18 1826.71Z" fill="#455A64"/>
<path d="M1061.02 786.55C1042.99 916.977 1026.29 1047.51 1008.58 1177.99C990.874 1308.47 972.203 1437.62 953.319 1567.41C942.65 1640.22 931.608 1712.93 921.846 1786.12C921.846 1787.24 923.393 1787.67 923.606 1786.55C947.451 1657.08 966.282 1526.65 985.219 1396.38C1004.16 1266.12 1021.49 1136.7 1037.55 1006.6C1046.57 933.514 1055.31 860.379 1062.73 787.137C1062.84 785.803 1061.18 785.59 1061.02 786.55Z" fill="#455A64"/>
<path d="M1229.59 1724.99C1229.59 1724.99 1259.04 1943.97 1259.04 1944.13C1259.3 1988.03 1260.32 2026.54 1262.72 2046.44C1262.7 2046.55 1262.7 2046.65 1262.72 2046.76C1262.79 2051.47 1263.92 2056.1 1266.02 2060.31C1266.02 2060.31 1266.02 2060.31 1266.29 2060.58C1279.41 2069.32 1592.97 2077.33 1605.35 2073.49C1617.72 2069.64 1607.7 2034.17 1594.31 2022.97C1580.92 2011.77 1485.38 1948.61 1485.38 1948.61L1448.52 1719.23L1229.59 1724.99Z" fill="#AD6359"/>
<path d="M1605.4 2073.49C1593.08 2077.33 1279.52 2069.32 1266.34 2060.58C1266.34 2060.58 1266.34 2060.58 1266.34 2060.26C1264.17 2056.07 1263.02 2051.43 1262.98 2046.71C1262.96 2046.6 1262.96 2046.49 1262.98 2046.39C1260.43 2023.36 1259.33 2000.2 1259.68 1977.04C1310.89 2009.53 1443.5 2023.98 1485.64 2014.75C1522.98 2006.54 1514.77 1976.45 1506.98 1962.9C1535.89 1982.16 1585.24 2015.29 1594.68 2023.13C1607.75 2034.12 1617.78 2069.64 1605.4 2073.49Z" fill="#263238"/>
<path d="M1506.66 1962.74C1506.66 1962.74 1401.15 1945.57 1328.97 2002.59Z" fill="#263238"/>
<path d="M1042.94 726.324C1043.84 730.592 1058.35 797.912 1073.4 855.738C1084.33 897.987 1095.59 935.114 1102.04 938.955C1109.35 943.276 1144.99 959.066 1156.93 964.027L1203.45 1877.76L1520.1 1870.67L1354.74 874.408L1326.89 726.324H1042.94Z" fill="#263238"/>
<path d="M1083.16 929.887C1108.59 939.142 1133.16 950.583 1156.61 964.081C1156.79 964.188 1156.93 964.357 1156.99 964.557C1157.05 964.756 1157.04 964.972 1156.96 965.162C1156.87 965.353 1156.72 965.506 1156.53 965.592C1156.34 965.678 1156.12 965.69 1155.92 965.628C1131.17 954.959 1105.94 944.823 1081.83 932.821C1081.44 932.644 1081.13 932.32 1080.98 931.92C1080.83 931.519 1080.85 931.076 1081.03 930.687C1081.2 930.298 1081.53 929.995 1081.93 929.845C1082.33 929.695 1082.77 929.71 1083.16 929.887V929.887Z" fill="#455A64"/>
<path d="M1075.69 760.411C1075.69 759.558 1077.24 759.344 1077.24 760.411C1077.24 789.804 1078.95 815.676 1081.4 843.095C1082.57 855.845 1092.81 926.313 1114.9 921.192C1118.63 920.285 1120.23 916.657 1121.09 911.109C1121.01 903.814 1120.02 896.557 1118.15 889.505C1115.7 874.729 1113.73 859.952 1112.45 845.069C1109.89 817.319 1110.2 789.38 1113.35 761.692C1113.4 761.534 1113.49 761.395 1113.62 761.295C1113.75 761.196 1113.91 761.143 1114.07 761.143C1114.24 761.143 1114.4 761.196 1114.53 761.295C1114.66 761.395 1114.75 761.534 1114.79 761.692C1114.12 800.143 1116.37 838.591 1121.51 876.702C1124.29 895.053 1133.52 922.632 1114.37 925.459C1095.22 928.286 1082.36 882.143 1079.8 869.501C1073.74 833.466 1072.36 796.8 1075.69 760.411V760.411Z" fill="#455A64"/>
<path d="M1114.31 922.899C1116.31 927.648 1117.97 932.532 1119.27 937.515C1120.7 941.354 1121.4 945.423 1121.35 949.517C1121.32 949.684 1121.24 949.838 1121.12 949.958C1121.01 950.079 1120.85 950.162 1120.69 950.197C1120.52 950.231 1120.35 950.215 1120.19 950.151C1120.04 950.087 1119.9 949.978 1119.81 949.837C1117.46 946.231 1115.66 942.293 1114.47 938.155C1112.82 933.621 1111.01 929.14 1109.46 924.606C1109.23 923.962 1109.27 923.255 1109.57 922.639C1109.86 922.024 1110.39 921.551 1111.03 921.325C1111.68 921.099 1112.38 921.137 1113 921.432C1113.61 921.727 1114.09 922.255 1114.31 922.899Z" fill="#455A64"/>
<path d="M1502.18 1827.03C1492.95 1826.29 1483.46 1826.55 1474.17 1826.45C1464.89 1826.34 1456.41 1826.45 1447.5 1826.45C1429.1 1826.45 1410.64 1826.87 1392.24 1827.19C1355.8 1827.89 1319.37 1828.69 1282.93 1829.81C1262.24 1830.45 1241.65 1831.67 1221.05 1833.17C1220.95 1833.2 1220.86 1833.27 1220.79 1833.36C1220.72 1833.45 1220.69 1833.56 1220.69 1833.68C1220.69 1833.79 1220.72 1833.9 1220.79 1833.99C1220.86 1834.08 1220.95 1834.15 1221.05 1834.18C1257.76 1835.36 1294.35 1834.88 1331.05 1834.18C1367.75 1833.49 1403.92 1832.69 1440.3 1831.62L1470.97 1830.55C1481.32 1830.13 1491.99 1829.97 1502.23 1828.69C1502.37 1828.6 1502.49 1828.47 1502.57 1828.33C1502.65 1828.18 1502.68 1828.01 1502.68 1827.85C1502.67 1827.68 1502.63 1827.52 1502.54 1827.37C1502.45 1827.23 1502.33 1827.11 1502.18 1827.03V1827.03Z" fill="#455A64"/>
<path d="M1363.48 1704.08C1360.76 1676.18 1357.78 1648.28 1354.9 1620.38C1349.14 1565.11 1343.2 1509.88 1337.08 1454.69C1324.95 1344.27 1312.51 1233.84 1299.74 1123.42C1292.64 1061.49 1286.78 999.341 1278.72 937.515C1278.72 936.982 1277.76 936.982 1277.81 937.515C1282.61 993.42 1289.44 1049.11 1295.1 1104.91C1300.75 1160.71 1306.19 1215.39 1311.95 1270.6C1323.41 1381.09 1335.18 1491.53 1347.27 1601.92C1350.68 1632.91 1354.1 1663.91 1357.94 1694.9C1361.78 1725.89 1365.89 1756.83 1369.78 1787.83C1369.78 1788.57 1371.06 1788.57 1370.95 1787.83C1368.29 1759.87 1366.21 1731.97 1363.48 1704.08Z" fill="#455A64"/>
<path d="M1019.41 852.644L1073.45 856.111L1230.98 866.353L1354.84 874.408L1326.89 726.324H1042.94H1021.6L1019.41 852.644Z" fill="#263238"/>
<path d="M1095.06 148.817C1043.31 193.146 1057.71 257.853 1036.11 292.847C1022.88 314.185 979.885 336.963 971.296 361.661C957.267 402.31 991.674 416.873 983.992 438.958C973.323 470.217 931.235 467.817 923.66 518.974C916.085 570.132 972.417 624.543 1106.04 639.319C1239.67 654.096 1313.02 605.126 1317.82 561.703C1322.62 518.281 1278.19 503.878 1275.15 471.444C1273.23 450.747 1300.65 436.29 1301.82 398.202C1302.99 360.114 1266.08 347.685 1260.74 315.305C1255.41 282.925 1272.59 204.242 1225 164.074C1177.42 123.905 1120.55 126.946 1095.06 148.817Z" fill="#263238"/>
<path d="M1101.03 150.204C1086.56 160.443 1074.78 174.021 1066.68 189.786C1058.3 206.504 1051.89 224.136 1047.58 242.33C1045.35 253.167 1041.88 263.71 1037.23 273.75C1032.61 282.133 1026.55 289.629 1019.31 295.888C1004.85 308.957 987.566 318.933 974.604 333.602C961.641 348.272 952.732 366.142 957.64 385.08C960.307 395.375 967.135 403.804 971.35 413.406C975.564 423.008 976.684 433.89 969.162 441.465C962.441 447.92 952.786 450.907 945.211 456.188C937.722 461.403 931.128 467.799 925.687 475.125C920.182 482.365 916.244 490.671 914.122 499.514C912.001 508.358 911.743 517.547 913.364 526.496C921.259 568.051 960.254 591.683 996.261 606.513C1001.28 608.593 1006.29 610.62 1011.36 612.594C1012.16 612.914 1012.8 611.794 1012 611.474C975.884 595.47 933.955 576.32 920.086 535.885C916.872 527.067 915.74 517.627 916.776 508.299C917.812 498.972 920.99 490.01 926.06 482.113C931.172 474.337 937.641 467.543 945.157 462.056C952.412 456.721 960.841 453.361 968.202 448.293C971.873 445.964 974.86 442.702 976.856 438.841C978.852 434.979 979.787 430.656 979.565 426.315C978.429 416.761 975.027 407.616 969.642 399.643C964.028 391.407 961.051 381.658 961.107 371.69C962.192 362 965.879 352.783 971.776 345.018C983.032 329.015 999.675 318.666 1014.45 306.61C1029.75 295.405 1041.13 279.673 1046.99 261.641C1049.77 252.092 1051.47 242.277 1053.87 232.675C1056.03 223.643 1058.68 214.739 1061.82 206.002C1067.72 188.596 1077.37 172.699 1090.09 159.433C1093.43 156.038 1097.12 152.999 1101.08 150.364C1102.1 150.204 1101.46 149.671 1101.03 150.204Z" fill="#263238"/>
<path d="M1323.74 529.91C1322.11 522.843 1318.97 516.217 1314.51 510.492C1309.87 504.625 1304.27 499.824 1299.1 494.489C1293.84 489.599 1290.05 483.335 1288.16 476.405C1287.22 467.938 1289.32 459.412 1294.08 452.347C1298.6 444.882 1302.6 437.11 1306.03 429.089C1310.55 416.848 1312.15 403.722 1310.69 390.756C1309.24 377.789 1304.77 365.342 1297.66 354.407C1293.12 346.938 1288 339.844 1283.36 332.429C1278.28 324.351 1274.3 315.632 1271.52 306.503C1265.49 286.392 1264.21 265.161 1259.3 244.784C1254.12 223.906 1246.84 203.604 1237.59 184.184C1237.59 183.704 1236.63 184.184 1236.9 184.611C1245.11 202.14 1251.46 220.485 1255.84 239.343C1260.1 257.213 1261.76 275.457 1264.9 293.487C1266.3 302.367 1268.57 311.086 1271.68 319.519C1274.85 327.305 1278.73 334.786 1283.25 341.871C1292.32 356.594 1301.61 371.103 1304.11 388.6C1306.6 405.751 1303.6 423.249 1295.52 438.584C1288.48 451.867 1278.67 466.537 1284.85 482.06C1290.19 495.236 1302.57 503.398 1310.94 514.067C1315.33 520.079 1318.4 526.949 1319.96 534.229C1321.51 541.509 1321.51 549.035 1319.96 556.315C1312.75 593.657 1275.31 612.274 1240.21 614.141C1239.98 614.141 1239.76 614.231 1239.6 614.391C1239.44 614.551 1239.35 614.768 1239.35 614.994C1239.35 615.221 1239.44 615.438 1239.6 615.598C1239.76 615.758 1239.98 615.848 1240.21 615.848C1270.72 615.474 1303.95 602.085 1318.25 573.492C1325.1 560.049 1327.04 544.634 1323.74 529.91V529.91Z" fill="#263238"/>
<path d="M1124.98 415.219C1115.49 454.054 1002.66 818.077 980.311 823.145C914.538 837.974 835.481 848.857 836.655 794.872C838.522 710.161 997.755 487.181 1074.04 413.086C1124.23 364.275 1134.37 376.865 1124.98 415.219Z" fill="#AD6359"/>
<path d="M1124.98 415.219C1115.49 454.054 1002.66 818.077 980.311 823.145C914.538 837.974 835.481 848.857 836.655 794.872C838.522 710.161 997.755 487.181 1074.04 413.086C1124.23 364.275 1134.37 376.865 1124.98 415.219Z" fill="#AD6359"/>
<path d="M836.228 814.289C808.916 718.269 1039.74 436.024 1084.65 400.069C1129.57 364.115 1135.38 375.371 1126.26 420.767C1117.14 466.163 1008 809.808 984.739 822.344C961.481 834.88 848.604 857.818 836.228 814.289Z" fill="#EBEBEB"/>
<path d="M1024.85 633.025L999.515 807.355C999.515 807.355 1283.63 811.569 1354.15 806.608C1354.15 806.608 1296.64 480.673 1220.79 398.362C1182.86 357.18 1138.32 360.221 1109.94 389.027C1102.79 396.335 1017.07 509.586 1008.05 552.848C1000.16 590.989 1024.85 633.025 1024.85 633.025Z" fill="#FFC727"/>
<path d="M1189.37 374.251C1189.37 374.251 1156.29 1283.03 1173.85 1326.18C1191.4 1369.34 1455.5 1412.17 1455.5 1412.17C1455.5 1412.17 1377.99 761.692 1307.69 564.264C1242.5 381.185 1189.37 374.251 1189.37 374.251Z" fill="#EBEBEB"/>
<path d="M1365.83 932.981C1341.85 936.291 1317.7 938.179 1293.5 938.635C1259.68 938.635 1226.12 935.328 1216.41 935.221C1215.56 935.221 1215.13 938.049 1215.72 938.102C1241.34 941.187 1267.11 942.967 1292.91 943.436C1316.53 943.269 1340.09 941.038 1363.32 936.768C1363.32 943.917 1363.32 949.518 1363.32 956.719C1339.48 961.307 1293.5 969.255 1219.29 959.707C1219.03 956.719 1219.29 940.769 1218.81 936.395C1218.81 935.755 1215.93 935.595 1215.83 936.395C1215.24 940.716 1213.48 979.071 1213.43 986.859C1213.43 1006.06 1214.6 1060.26 1219.35 1070.77C1230.02 1094.56 1276.48 1094.61 1289.34 1094.72C1302.19 1094.83 1343.48 1096.11 1358.95 1080.96C1367.22 1072.9 1368.98 1028.95 1367.75 990.273C1366.95 971.709 1366.9 933.354 1365.83 932.981ZM1292.75 1090.24C1251.78 1090.24 1234.07 1081.71 1227.67 1073.12C1220.31 1063.19 1219.67 1045.8 1219.13 1026.65C1218.71 1011.61 1219.13 964.508 1219.13 963.547C1242.98 968.348 1305.98 974.91 1363.16 961.627C1363.16 983.925 1363.16 1001.8 1363.16 1024.15C1363.16 1040.15 1362.15 1067.46 1353.94 1076.9C1347.48 1084.8 1322.36 1090.19 1292.75 1090.24Z" fill="#A6A6A6"/>
<path d="M1015.2 1330.18C1000.58 1364.75 913.204 1388.22 913.204 1388.22L1023.31 629.877C1009.37 607.049 1003.93 580.038 1007.94 553.595C1015.36 510.919 1104.39 387.64 1118.79 381.292C1103.93 444.955 1093.61 509.593 1087.91 574.719C1063.21 841.282 1031.2 1292.47 1015.2 1330.18Z" fill="#EBEBEB"/>
<path d="M1036 495.983C1043.95 483.34 1052.01 470.804 1059.9 458.108C1059.9 457.735 1059.53 457.308 1059.26 457.681C1051.31 468.35 1043.58 478.646 1035.9 489.261C1038.46 483.607 1040.91 477.899 1043.2 472.084C1043.2 471.444 1042.56 470.858 1042.24 471.551C1038.72 479.019 1035.52 486.594 1032.38 494.222C1025.51 503.715 1019.44 513.76 1014.24 524.255C1002.81 546.024 999.392 571.117 1004.58 595.15C1006.21 601.852 1008.59 608.347 1011.68 614.514C1013.81 618.728 1020.64 627.85 1020.59 628.117C1016.16 652.975 1012.8 678.101 1009.28 703.119C1005.76 728.138 1002.13 753.69 999.195 779.082C997.542 793.485 996.475 807.941 994.341 822.238C994.341 822.771 995.088 822.984 995.195 822.238C997.008 809.755 999.676 797.432 1001.92 784.896C1004.16 772.36 1006.24 760.038 1008.21 747.555C1012.26 722.377 1015.89 697.145 1019.52 671.913C1021.6 657.616 1023.84 643.374 1025.44 629.237C1023.1 623.821 1020.37 618.579 1017.28 613.554C1014.71 608.275 1012.62 602.776 1011.04 597.124C1007.76 585.677 1006.74 573.699 1008.05 561.863C1010.82 537.751 1023.31 516.254 1036 495.983Z" fill="#263238"/>
<path d="M1118.1 384.066C1109.74 396.762 1101.24 409.334 1092.6 421.781C1083.91 434.21 1075.42 446.799 1066.57 459.122V456.188L1087.91 478.539L1089.67 480.353L1087.8 482.167C1078.84 490.862 1069.72 499.344 1060.65 507.932L1061.4 505.692C1064.7 528.79 1068.22 551.888 1071.16 575.039C1074.09 598.191 1077.24 621.396 1079.8 644.387C1075.37 621.449 1071.37 598.458 1067.53 575.413C1063.69 552.368 1060.06 529.323 1056.38 506.065V504.785L1057.34 503.878C1066.36 495.236 1075.32 486.541 1084.44 478.059V481.687L1063 459.602L1061.66 458.162L1062.78 456.615C1071.74 444.399 1081.08 432.396 1090.15 420.287C1099.22 408.178 1108.66 395.962 1118.1 384.066Z" fill="#A6A6A6"/>
<path d="M1213.48 438.638C1237.75 470.644 1347.21 597.764 1354.15 608.966C1358.84 616.488 1332.44 651.962 1332.81 656.976C1335.16 677.781 1377.99 811.302 1395.7 796.739C1419.02 777.642 1526.35 644.547 1510.77 587.255C1495.19 529.963 1250.82 392.335 1213.27 381.186C1175.71 370.037 1189.47 407.324 1213.48 438.638Z" fill="#AD6359"/>
<path d="M1351.32 610.727C1351.32 602.618 1223.3 466.323 1199.77 420.767C1176.25 375.211 1188.19 365.502 1248.26 394.735C1308.33 423.968 1492.74 531.03 1514.61 584.268C1536.48 637.506 1416.46 783.83 1416.46 783.83L1332.49 642.52C1332.49 642.52 1351.22 617.395 1351.32 610.727Z" fill="#EBEBEB"/>
<path d="M1432.83 743.075C1403.87 689.25 1365.3 637.079 1359.22 627.53C1358.9 627.05 1358.2 627.53 1358.52 628.011C1364.98 637.079 1402.64 701.519 1432.09 743.608C1432.25 744.088 1432.83 743.608 1432.83 743.075Z" fill="#263238"/>
<path d="M1303.79 551.781C1298.46 545.166 1293.44 538.392 1287.79 531.884C1282.13 525.376 1276.59 518.761 1270.88 512.306C1259.39 499.184 1247.69 486.274 1235.78 473.578C1235.78 473.578 1235.3 473.578 1235.46 473.578C1241.57 481.331 1247.78 488.977 1254.08 496.516C1250.13 493.209 1245.91 490.168 1241.65 487.234C1241.65 487.234 1241.27 487.234 1241.65 487.554C1245.33 491.182 1249.17 494.756 1253.17 498.223L1259.04 503.024C1259.58 503.498 1260.15 503.943 1260.74 504.358C1263.3 507.399 1266.08 510.439 1268.37 513.426C1273.71 519.988 1279.52 526.549 1285.28 533.004C1291.04 539.459 1297.34 545.807 1303.31 552.315C1303.47 552.635 1304.11 552.155 1303.79 551.781Z" fill="#263238"/>
<path d="M1319.16 831.733C1306.67 821.064 1326.52 812.369 1326.52 812.369C1326.52 812.369 1294.99 817.703 1286.4 801.7C1277.81 785.697 1302.41 776.681 1304.22 775.988C1302.57 776.255 1273.49 780.522 1266.5 763.452C1259.52 746.382 1285.34 740.407 1287.04 740.034C1285.39 740.034 1263.52 736.3 1261.17 722.163C1257.17 697.838 1320.6 702.533 1335.85 689.73C1335.85 689.73 1333.34 657.723 1332.97 657.03C1336.22 664.433 1341.86 670.536 1348.97 674.367C1362.2 679.701 1374.21 683.489 1379.01 690.69C1381.19 693.841 1382.32 697.603 1382.24 701.437C1382.15 705.271 1380.85 708.979 1378.53 712.028C1378.53 712.028 1396.02 712.028 1401.95 725.311C1404.93 732.085 1396.61 742.968 1396.61 742.968C1400.57 743.19 1404.39 744.497 1407.66 746.746C1410.92 748.995 1413.5 752.098 1415.12 755.717C1418.8 765.319 1409.79 774.761 1409.79 774.761C1409.79 774.761 1422.96 781.589 1423.44 792.631C1425.04 815.196 1345.93 854.724 1319.16 831.733Z" fill="#AD6359"/>
<path d="M1409.15 776.735C1409.41 776.735 1409.63 776.735 1409.41 777.108C1385.73 797.3 1356.46 809.803 1325.5 812.956C1324.49 812.956 1323.96 811.462 1325.02 811.195C1354.58 803.84 1382.92 792.232 1409.15 776.735Z" fill="#263238"/>
<path d="M1397.41 743.234C1397.73 743.234 1398 743.501 1397.73 743.768C1371.39 765.758 1338.05 777.619 1303.74 777.215C1302.57 777.215 1301.5 775.935 1302.89 775.881C1326.14 775.081 1373.03 758.331 1397.41 743.234Z" fill="#263238"/>
<path d="M1284.64 739.18C1318.2 739.18 1348.39 728.512 1377.83 713.202C1378.21 713.202 1378.42 713.575 1378.15 713.788C1365.83 725.258 1346.15 733.152 1330.14 737.953C1315.46 742.712 1299.79 743.54 1284.69 740.354C1284 740.194 1283.89 739.18 1284.64 739.18Z" fill="#263238"/>
<path d="M1411.17 775.028C1414.22 772.553 1416.52 769.286 1417.83 765.588C1419.14 761.889 1419.4 757.902 1418.59 754.063C1417.47 750.395 1415.06 747.252 1411.82 745.208C1407.83 743.295 1403.43 742.38 1399.01 742.541C1401.82 739.409 1403.61 735.504 1404.16 731.336C1404.72 727.168 1404 722.93 1402.11 719.176C1399.93 715.872 1396.57 713.525 1392.72 712.615C1388.27 711.681 1383.71 711.34 1379.17 711.601C1381.28 709.649 1382.9 707.226 1383.91 704.529C1384.91 701.831 1385.26 698.936 1384.93 696.078C1384.45 692.945 1383.24 689.97 1381.38 687.4C1379.53 684.831 1377.08 682.74 1374.26 681.301C1367.64 677.993 1360.66 675.468 1353.46 673.78C1349.74 672.793 1346.16 671.36 1342.79 669.512C1339.8 667.699 1335.59 664.178 1335.16 660.604C1335.16 659.857 1334.04 660.337 1334.41 660.604C1335.86 663.053 1337.45 665.422 1339.16 667.699C1341.17 669.883 1343.47 671.785 1345.99 673.353C1352.33 676.602 1358.89 679.401 1365.62 681.728C1371.51 683.988 1376.47 688.158 1379.7 693.571C1381.15 696.4 1381.78 699.578 1381.52 702.746C1381.25 705.914 1380.11 708.945 1378.21 711.494C1378.16 711.56 1378.12 711.64 1378.11 711.723C1378.11 711.807 1378.12 711.891 1378.16 711.966C1378.2 712.04 1378.26 712.1 1378.34 712.14C1378.41 712.18 1378.5 712.196 1378.58 712.188C1382.65 712.623 1386.64 713.555 1390.48 714.962C1393.64 716.22 1396.35 718.393 1398.27 721.203C1399.96 724.65 1400.71 728.482 1400.45 732.313C1400.19 736.144 1398.92 739.837 1396.77 743.021C1401.1 743.885 1405.26 745.491 1409.04 747.769C1411.49 749.641 1413.34 752.178 1414.38 755.077C1415.54 758.39 1415.76 761.963 1415 765.393C1414.25 768.823 1412.55 771.975 1410.11 774.494V774.761C1410.11 774.761 1414.27 777.108 1414.48 777.162C1414.7 777.215 1414.48 777.162 1414.48 776.895C1413.41 776.214 1412.31 775.591 1411.17 775.028V775.028Z" fill="#263238"/>
<path d="M1193.58 381.506C1200.04 395.215 1206.39 409.031 1212.52 422.901C1218.65 436.77 1224.9 450.587 1230.76 464.563L1231.51 466.323L1229.91 467.39L1204.36 484.674L1205.11 481.1C1212.04 491.449 1218.76 501.957 1225.54 512.466L1226.18 513.48L1225.86 514.6C1218.97 535.938 1212.36 557.276 1205.21 578.24C1198.06 599.204 1190.97 620.542 1183.45 641.56C1189.21 619.955 1195.34 598.511 1201.64 577.12C1207.93 555.729 1214.49 534.444 1221 513.106V515.24C1214.12 504.571 1207.24 494.436 1200.52 483.927L1199.08 481.74L1201.21 480.353L1227.08 463.549L1226.23 466.377C1220.41 452.347 1215.08 438.157 1209.43 424.074C1203.77 409.992 1198.81 395.589 1193.58 381.506Z" fill="#A6A6A6"/>
<path d="M1220.79 407.911C1219.45 376.865 1180.78 368.756 1157.36 368.116C1129.57 367.369 1111.65 371.69 1101.4 399.643C1090.73 429.142 1086.95 462.429 1084.92 493.636C1084.86 494.838 1084.32 495.966 1083.42 496.772C1082.53 497.577 1081.35 497.994 1080.15 497.93C1078.94 497.866 1077.81 497.328 1077.01 496.432C1076.2 495.537 1075.79 494.358 1075.85 493.156C1078.2 457.201 1079.96 390.414 1112.93 367.369C1143.33 346.032 1227.62 355.74 1229.86 408.391C1229.86 414.206 1221 413.726 1220.79 407.911Z" fill="#455A64"/>
<path d="M1058.67 509.479C1058.47 513.599 1059.49 517.688 1061.61 521.228C1063.72 524.768 1066.84 527.601 1070.57 529.368C1074.3 531.135 1078.47 531.756 1082.55 531.154C1086.63 530.552 1090.44 528.754 1093.5 525.986C1096.56 523.218 1098.73 519.605 1099.73 515.604C1100.74 511.603 1100.54 507.394 1099.15 503.509C1097.76 499.624 1095.26 496.237 1091.94 493.777C1088.63 491.317 1084.67 489.894 1080.55 489.688C1075.03 489.441 1069.64 491.381 1065.54 495.087C1061.45 498.792 1058.98 503.964 1058.67 509.479V509.479Z" fill="#263238"/>
<path d="M1067 509.906C1066.87 512.381 1067.49 514.837 1068.76 516.963C1070.03 519.09 1071.9 520.792 1074.14 521.854C1076.38 522.917 1078.88 523.292 1081.34 522.932C1083.79 522.572 1086.08 521.494 1087.92 519.834C1089.76 518.173 1091.06 516.005 1091.67 513.602C1092.28 511.2 1092.16 508.671 1091.33 506.336C1090.5 504.001 1089 501.964 1087.01 500.482C1085.03 499 1082.65 498.14 1080.17 498.01C1078.52 497.917 1076.87 498.151 1075.32 498.7C1073.76 499.249 1072.33 500.101 1071.1 501.207C1069.88 502.314 1068.88 503.652 1068.18 505.145C1067.47 506.639 1067.07 508.256 1067 509.906V509.906Z" fill="#EBEBEB"/>
<path d="M1200.14 507.932C1186.91 597.071 1192.78 617.822 1201.05 626.997C1207.26 633.297 1214.83 638.08 1223.19 640.973L1225.22 634.945L1224.2 637.986L1225.22 634.945C1217.87 632.345 1211.22 628.113 1205.75 622.569C1199.77 615.955 1193.32 596.964 1206.39 508.732L1200.14 507.932Z" fill="#C7C7C7"/>
<path d="M1215.56 633.614L1214.93 635.14C1213.67 638.158 1215.09 641.626 1218.11 642.885L1227.41 646.77C1230.43 648.03 1233.9 646.604 1235.16 643.587L1235.79 642.061C1237.05 639.043 1235.63 635.575 1232.61 634.315L1223.31 630.431C1220.29 629.171 1216.82 630.596 1215.56 633.614Z" fill="#263238"/>
<path d="M1256.8 503.824C1281.17 567.198 1289.28 602.458 1282.29 614.834C1278.17 621.428 1272.6 627.007 1266.02 631.158L1269.28 636.492C1276.78 631.749 1283.11 625.365 1287.79 617.822C1296.11 603.099 1288.86 569.385 1262.72 501.477L1256.8 503.824Z" fill="#C7C7C7"/>
<path d="M1257.23 640.096L1258.18 641.447C1260.07 644.117 1263.77 644.751 1266.44 642.863L1274.67 637.043C1277.34 635.155 1277.97 631.46 1276.09 628.79L1275.13 627.44C1273.24 624.769 1269.55 624.135 1266.88 626.023L1258.64 631.843C1255.97 633.731 1255.34 637.426 1257.23 640.096Z" fill="#263238"/>
<path d="M1264.64 498.597C1260.16 484.463 1254.82 470.62 1248.63 457.148C1245.21 451.28 1240.27 446.436 1234.34 443.118C1233.11 443.118 1232.42 432.076 1232.04 423.007C1231.78 415.059 1231.56 405.724 1229.38 403.377C1228.15 402.331 1226.56 401.802 1224.95 401.901C1223.34 402.001 1221.83 402.721 1220.73 403.91C1218.81 406.471 1219.72 415.753 1220.31 423.701C1221 432.77 1221.64 443.812 1220.31 443.919C1215.28 448.159 1211.33 453.535 1208.79 459.602C1204.23 474.076 1200.79 488.878 1198.49 503.878C1197.53 513.373 1200.68 514.173 1203.45 514.813C1207.35 515.667 1209.48 512.84 1211.29 502.277C1214.17 485.474 1217.05 457.415 1228.36 456.241C1239.73 456.241 1247.51 484.62 1252.9 500.41C1256.26 510.279 1258.24 511.079 1262.29 509.692C1264.74 508.839 1267.46 507.612 1264.64 498.597Z" fill="#263238"/>
<path d="M1182.86 379.585C1180.78 384.92 1160.35 420.714 1134.85 420.714C1118.85 420.714 1122.69 365.609 1122.69 365.609V362.195L1118.95 314.185L1178.7 286.979L1187.23 283.458C1187.23 283.458 1187.23 296.688 1187.23 313.118V315.572C1187.23 316.532 1187.23 317.386 1187.23 318.239C1187.23 320.693 1187.23 323.2 1187.23 325.707C1187.23 328.215 1187.23 329.495 1187.23 331.469C1187.23 333.442 1187.23 335.416 1187.23 337.443C1186.73 351.573 1185.27 365.653 1182.86 379.585V379.585Z" fill="#AD6359"/>
<path d="M1187.13 313.118C1180.54 325.514 1171.34 336.329 1160.16 344.813C1148.97 353.297 1136.08 359.246 1122.37 362.248L1118.63 314.238L1178.38 287.032L1186.91 283.512C1186.91 283.512 1187.07 296.688 1187.13 313.118Z" fill="#263238"/>
<path d="M1058.57 242.65C1050.67 326.881 1100.28 341.124 1118.42 342.778C1134.9 344.325 1191.24 347.365 1207.77 264.414C1224.31 181.464 1187.45 151.164 1150.11 145.723C1112.77 140.282 1066.41 158.419 1058.57 242.65Z" fill="#AD6359"/>
<path d="M1086.09 223.926C1088.01 223.696 1089.92 223.358 1091.8 222.912C1093.89 222.856 1095.9 222.105 1097.51 220.779C1097.92 220.253 1098.14 219.605 1098.14 218.938C1098.14 218.271 1097.92 217.623 1097.51 217.098C1096.59 216.147 1095.43 215.459 1094.16 215.103C1092.88 214.746 1091.53 214.735 1090.25 215.071C1087.54 215.382 1085.04 216.672 1083.21 218.698C1082.83 219.2 1082.59 219.804 1082.54 220.436C1082.5 221.069 1082.63 221.701 1082.94 222.257C1083.24 222.812 1083.71 223.266 1084.27 223.562C1084.83 223.859 1085.46 223.985 1086.09 223.926Z" fill="#263238"/>
<path d="M1143.81 226.167C1141.9 225.793 1140.01 225.313 1138.16 224.726C1136.16 224.478 1134.29 223.599 1132.82 222.219C1132.42 221.69 1132.2 221.043 1132.2 220.379C1132.2 219.714 1132.42 219.067 1132.82 218.538C1133.81 217.652 1135.02 217.046 1136.33 216.783C1137.63 216.521 1138.98 216.611 1140.24 217.045C1142.92 217.545 1145.32 219.029 1146.96 221.205C1147.31 221.722 1147.5 222.33 1147.51 222.954C1147.52 223.579 1147.35 224.192 1147.02 224.72C1146.68 225.247 1146.2 225.665 1145.63 225.922C1145.06 226.179 1144.43 226.264 1143.81 226.167V226.167Z" fill="#263238"/>
<path d="M1130.9 247.078C1130.9 247.078 1131.33 247.078 1131.33 247.611C1130.8 253.319 1131.33 259.987 1136.24 262.227C1136.24 262.227 1136.24 262.601 1136.24 262.548C1129.89 261.267 1129.52 252.412 1130.9 247.078Z" fill="#263238"/>
<path d="M1136.4 241.37C1145.73 241.37 1145.31 259.827 1136.72 259.934C1128.13 260.04 1128.77 241.476 1136.4 241.37Z" fill="#263238"/>
<path d="M1140.02 242.437C1141.63 243.504 1143.17 245.424 1145.36 245.637C1147.55 245.851 1149.36 244.037 1150.69 242.17H1151.01C1151.01 245.744 1149.52 249.371 1145.68 249.798C1141.84 250.225 1139.76 247.024 1138.96 243.397C1138.8 242.97 1139.44 242.01 1140.02 242.437Z" fill="#263238"/>
<path d="M1096.18 245.371C1096.18 245.371 1095.7 245.371 1095.7 245.904C1095.7 251.665 1094.95 258.28 1089.72 260.094C1089.72 260.094 1089.72 260.467 1089.72 260.414C1096.12 259.614 1097.19 250.812 1096.18 245.371Z" fill="#263238"/>
<path d="M1091.11 239.289C1081.83 238.489 1080.87 257.053 1089.45 257.8C1098.04 258.547 1098.84 239.983 1091.11 239.289Z" fill="#263238"/>
<path d="M1087.16 240.303C1085.67 241.21 1084.12 242.917 1082.36 242.97C1080.6 243.023 1078.89 240.89 1077.72 238.916C1077.72 238.916 1077.45 238.916 1077.4 238.916C1077.13 242.49 1078.09 246.224 1081.45 247.078C1084.81 247.931 1086.79 244.944 1088.01 241.743C1088.23 240.89 1087.8 239.929 1087.16 240.303Z" fill="#263238"/>
<path d="M1126.21 292.901C1124.87 294.287 1123.54 296.155 1121.46 296.368C1119.33 296.371 1117.23 295.936 1115.27 295.088C1115.27 295.088 1114.9 295.088 1115.01 295.088C1115.85 296.205 1116.98 297.073 1118.27 297.599C1119.57 298.125 1120.99 298.289 1122.37 298.075C1123.55 297.729 1124.61 297.037 1125.4 296.086C1126.19 295.135 1126.67 293.97 1126.8 292.74C1126.9 292.794 1126.42 292.687 1126.21 292.901Z" fill="#263238"/>
<path d="M1102.84 271.243C1102.84 271.243 1101.4 279.831 1101.24 283.885C1101.24 284.259 1102.2 284.472 1103.59 284.579C1107.05 285.323 1110.65 285.099 1113.99 283.932C1117.33 282.765 1120.28 280.7 1122.53 277.964C1122.85 277.591 1122.53 277.164 1121.99 277.377C1116.7 280.765 1110.45 282.337 1104.18 281.858C1104.18 280.738 1107.22 267.295 1106.58 267.188C1103.42 267.393 1100.3 268.003 1097.3 269.002C1099.86 251.078 1105.24 233.741 1107.54 215.658C1107.54 215.516 1107.48 215.381 1107.38 215.281C1107.28 215.18 1107.15 215.124 1107 215.124C1106.86 215.124 1106.73 215.18 1106.63 215.281C1106.53 215.381 1106.47 215.516 1106.47 215.658C1100.11 234.082 1095.61 253.096 1093.03 272.416C1092.76 274.657 1101.24 271.883 1102.84 271.243Z" fill="#263238"/>
<path d="M1106.36 282.498C1108.32 285.499 1111.02 287.943 1114.21 289.593C1115.87 290.355 1117.73 290.614 1119.54 290.34C1123.75 289.593 1124.13 285.859 1123.59 282.551C1123.35 280.718 1122.86 278.925 1122.15 277.217C1117.59 280.617 1112.06 282.468 1106.36 282.498V282.498Z" fill="#263238"/>
<path d="M1114.21 289.593C1115.87 290.355 1117.73 290.614 1119.54 290.34C1123.75 289.593 1124.13 285.859 1123.59 282.552C1121.47 282.531 1119.4 283.21 1117.71 284.482C1116.01 285.755 1114.78 287.551 1114.21 289.593V289.593Z" fill="#FF9CBD"/>
<path d="M1063.53 212.884C1073.45 216.084 1108.82 194.106 1123.01 162.473C1125.48 180.898 1134.31 197.881 1147.97 210.483C1171.02 231.821 1192.89 233.421 1192.89 233.421C1192.89 233.421 1199.72 271.509 1206.01 272.363C1212.31 273.216 1251.94 142.789 1141.09 141.295C1141.09 141.295 1108.66 138.041 1088.39 156.979C1068.12 175.916 1063.53 212.884 1063.53 212.884Z" fill="#263238"/>
<path d="M1193.8 261.321C1193.8 261.321 1212.41 235.075 1224.36 241.69C1236.31 248.305 1222.18 286.553 1208.04 291.727C1206.28 292.508 1204.37 292.925 1202.44 292.951C1200.52 292.978 1198.6 292.614 1196.82 291.881C1195.03 291.149 1193.42 290.062 1192.06 288.688C1190.71 287.314 1189.65 285.68 1188.94 283.885L1193.8 261.321Z" fill="#AD6359"/>
<path d="M1220.04 252.572C1220.04 252.572 1220.31 252.572 1220.04 252.945C1210.17 256.893 1204.89 265.961 1201.21 275.457C1201.79 274.471 1202.58 273.623 1203.52 272.971C1204.46 272.319 1205.53 271.879 1206.65 271.681C1207.78 271.483 1208.93 271.532 1210.04 271.825C1211.14 272.118 1212.17 272.647 1213.05 273.376C1213.32 273.376 1213.05 273.963 1212.79 273.856C1211.05 273.312 1209.19 273.311 1207.46 273.855C1205.72 274.398 1204.19 275.46 1203.08 276.897C1201.23 279.313 1199.66 281.925 1198.38 284.685C1197.9 285.592 1196.3 285.112 1196.68 284.099C1196.62 271.296 1206.55 253.746 1220.04 252.572Z" fill="#263238"/>
<path d="M1122.21 378.892C1118.53 380.812 1123.91 449.413 1126.26 453.254C1127.12 454.694 1172.14 419.113 1187.13 373.237C1187.13 373.397 1160.78 358.941 1122.21 378.892Z" fill="#AD6359"/>
<path d="M1043.27 516.25L837.899 580.175L921.103 847.476L1126.47 783.551L1043.27 516.25Z" fill="#455A64"/>
<path d="M895.976 579.383L993.274 548.967L984.058 519.487L886.761 549.904L895.976 579.383Z" fill="#A6A6A6"/>
<path d="M908.883 542.979L920.886 539.245L916.618 525.642L945.744 516.521L950.012 530.123L961.961 526.389L954.226 501.637L900.988 518.281L908.883 542.979Z" fill="#A6A6A6"/>
<path d="M1083.05 618.088C1086.22 621.332 1088.32 625.467 1089.08 629.938C1089.83 634.409 1089.2 639.004 1087.27 643.107C1094.81 644.668 1101.56 648.82 1106.36 654.843C1114.31 665.832 1100.55 683.169 1100.55 683.169C1108.04 686.411 1114.38 691.84 1118.74 698.745C1125.3 710.001 1113.94 729.472 1113.94 729.472C1119.17 736.263 1121.78 744.707 1121.3 753.263C1119.11 776.041 1087.8 791.618 1067.96 801.753C1048.11 811.889 982.605 822.078 970.283 825.278L904.189 698.799C904.189 698.799 980.045 628.171 1005.01 619.582C1026.08 612.327 1070.46 606.139 1083.05 618.088Z" fill="#AD6359"/>
<path d="M913.204 690.583C890.586 707.974 822.518 774.921 838.522 809.008C854.525 843.095 909.15 839.681 984.739 822.344L913.204 690.583Z" fill="#AD6359"/>
<path d="M913.204 690.583C890.586 707.974 819.104 773.321 837.188 817.117C851.591 851.897 915.818 856.111 991.62 838.454L913.204 690.583Z" fill="#EBEBEB"/>
<path d="M952.732 839.895C929.047 783.616 895.547 727.871 890.426 717.896C890.41 717.831 890.378 717.771 890.334 717.72C890.29 717.67 890.235 717.63 890.173 717.605C890.111 717.58 890.044 717.569 889.977 717.575C889.91 717.58 889.846 717.602 889.788 717.637C889.731 717.672 889.683 717.72 889.648 717.777C889.613 717.834 889.592 717.899 889.587 717.965C889.581 718.032 889.592 718.099 889.617 718.161C889.642 718.223 889.682 718.279 889.732 718.323C895.067 727.978 926.594 795.672 951.932 840.428C952.146 840.908 952.732 840.481 952.732 839.895Z" fill="#263238"/>
<path d="M1085.29 641.56C1061.13 643.854 1038.94 653.243 1016.27 661.351C1016.17 661.386 1016.09 661.459 1016.04 661.555C1016 661.65 1015.99 661.759 1016.03 661.858C1016.06 661.957 1016.13 662.038 1016.23 662.083C1016.32 662.128 1016.43 662.133 1016.53 662.098C1038.99 653.829 1062.84 650.042 1085.56 642.68C1085.68 642.624 1085.78 642.526 1085.84 642.404C1085.9 642.282 1085.92 642.143 1085.89 642.01C1085.86 641.878 1085.78 641.761 1085.67 641.679C1085.56 641.597 1085.43 641.555 1085.29 641.56V641.56Z" fill="#263238"/>
<path d="M1099.32 681.728C1093.87 682.809 1088.58 684.602 1083.59 687.063C1078.25 689.357 1072.92 691.651 1067.58 694.104C1056.91 698.959 1046.25 704.026 1035.84 709.468C1035.36 709.468 1035.84 710.481 1035.84 710.214C1046.51 705.413 1057.18 700.772 1068.17 696.398C1073.5 694.211 1078.84 692.077 1084.55 689.997C1089.84 688.316 1094.93 686.081 1099.75 683.329C1099.96 683.272 1100.14 683.134 1100.25 682.943C1100.36 682.753 1100.39 682.527 1100.34 682.315C1100.28 682.103 1100.14 681.922 1099.95 681.812C1099.76 681.702 1099.54 681.672 1099.32 681.728V681.728Z" fill="#263238"/>
<path d="M1113.46 729.632C1108.57 730.606 1103.87 732.41 1099.59 734.966L1085.03 741.794C1075.32 746.328 1065.61 750.809 1055.74 755.024C1055.26 755.024 1055.74 755.984 1056.01 755.77C1066.09 751.61 1076.17 747.555 1086.2 743.288L1100.92 736.886C1105.57 735.32 1109.9 732.955 1113.73 729.898C1113.73 729.898 1113.73 729.632 1113.46 729.632Z" fill="#263238"/>
<path d="M910.057 691.757C902.125 697.601 894.604 703.982 887.545 710.855L882.211 716.189L879.917 717.683C876.716 719.816 873.516 722.004 870.528 724.404C864.737 729.12 859.249 734.198 854.098 739.607C853.725 740.034 854.098 740.567 854.739 740.194C860.37 735.121 866.38 730.485 872.716 726.324L875.169 724.671C872.182 727.925 869.302 731.285 866.634 734.753C859.44 743.961 852.813 753.599 846.79 763.612C846.523 764.092 847.27 764.466 847.537 763.986C858.579 746.275 906.696 698.905 911.977 693.197C917.258 687.49 914.218 688.503 910.057 691.757Z" fill="#263238"/>
<path d="M1646.21 301.115C1612.4 346.33 1569.26 383.752 1519.73 410.845C1470.24 383.732 1427.15 346.313 1393.36 301.115C1348.87 242.436 1351.06 149.99 1414.7 130.04C1485.32 108.008 1519.89 214.217 1519.89 214.217C1519.89 214.217 1555.04 107.528 1624.98 130.306C1688.46 150.684 1690.86 242.223 1646.21 301.115Z" fill="#FFC727"/>
<path d="M1470.23 364.275L1451.08 284.365L1438.54 312.531H1360.98V303.516H1432.67L1453.58 256.413L1468.57 318.719L1489.75 189.625L1508.42 291.727L1523.2 249.105L1546.46 318.879L1551.63 303.463H1678.96V312.478H1558.09L1546.46 347.365L1523.04 277.11L1505.7 327.148L1490.23 242.437L1470.23 364.275Z" fill="white"/>
<path d="M2046.88 1659.43V1741.15H2014.23V1694.63H1901.09V1741.15H1868.44V1659.43H2046.88Z" fill="#FFC727"/>
<path opacity="0.1" d="M1901.09 1705.2H1868.44V1741.15H1901.09V1705.2Z" fill="black"/>
<path opacity="0.1" d="M2046.88 1705.2H2014.23V1741.15H2046.88V1705.2Z" fill="black"/>
<path d="M2199.66 2025.85H1715.77L1742.44 1723.17H2172.99L2199.66 2025.85Z" fill="#FFC727"/>
<path opacity="0.1" d="M1957.74 2025.85H1715.77L1742.44 1723.17H1957.74V2025.85Z" fill="black"/>
<path d="M2032.21 1856.91V1892.11H1975.35V1948.98H1940.14V1892.11H1883.27V1856.91H1940.14V1800.04H1975.35V1856.91H2032.21Z" fill="#FFFFFD"/>
</svg>
